<svg id="visual" viewBox="0 0 1920 400" width="1920" height="400" xmlns="http://www.w3.org/2000/svg" xmlns:xlink="http://www.w3.org/1999/xlink" version="1.1"><path d="M0 114L45.7 112.2C91.3 110.3 182.7 106.7 274.2 108.3C365.7 110 457.3 117 548.8 129.3C640.3 141.7 731.7 159.3 823 164C914.3 168.7 1005.7 160.3 1097 154C1188.3 147.7 1279.7 143.3 1371.2 152.5C1462.7 161.7 1554.3 184.3 1645.8 177.7C1737.3 171 1828.7 135 1874.3 117L1920 99L1920 401L1874.3 401C1828.7 401 1737.3 401 1645.8 401C1554.3 401 1462.7 401 1371.2 401C1279.7 401 1188.3 401 1097 401C1005.7 401 914.3 401 823 401C731.7 401 640.3 401 548.8 401C457.3 401 365.7 401 274.2 401C182.7 401 91.3 401 45.7 401L0 401Z" fill="#c9e8ff"></path><path d="M0 279L45.7 274.8C91.3 270.7 182.7 262.3 274.2 249.5C365.7 236.7 457.3 219.3 548.8 222.8C640.3 226.3 731.7 250.7 823 248.8C914.3 247 1005.7 219 1097 216.5C1188.3 214 1279.7 237 1371.2 234.3C1462.7 231.7 1554.3 203.3 1645.8 190.2C1737.3 177 1828.7 179 1874.3 180L1920 181L1920 401L1874.3 401C1828.7 401 1737.3 401 1645.8 401C1554.3 401 1462.7 401 1371.2 401C1279.7 401 1188.3 401 1097 401C1005.7 401 914.3 401 823 401C731.7 401 640.3 401 548.8 401C457.3 401 365.7 401 274.2 401C182.7 401 91.3 401 45.7 401L0 401Z" fill="#bddcf2"></path><path d="M0 296L45.7 289C91.3 282 182.7 268 274.2 261.7C365.7 255.3 457.3 256.7 548.8 264.8C640.3 273 731.7 288 823 302.7C914.3 317.3 1005.7 331.7 1097 328.7C1188.3 325.7 1279.7 305.3 1371.2 299.5C1462.7 293.7 1554.3 302.3 1645.8 310.2C1737.3 318 1828.7 325 1874.3 328.5L1920 332L1920 401L1874.3 401C1828.7 401 1737.3 401 1645.8 401C1554.3 401 1462.7 401 1371.2 401C1279.7 401 1188.3 401 1097 401C1005.7 401 914.3 401 823 401C731.7 401 640.3 401 548.8 401C457.3 401 365.7 401 274.2 401C182.7 401 91.3 401 45.7 401L0 401Z" fill="#b2d1e6"></path></svg>